<svg id="Layer_1" data-name="Layer 1" xmlns="http://www.w3.org/2000/svg" viewBox="0 0 187.2 189.99"><defs><style>.cls-1{fill:#22619c;fill-rule:evenodd;}</style></defs><path class="cls-1" d="M181,139l-.82,2.13c-14,27.22-38.76,43.93-74.1,44.66a103.73,103.73,0,0,1-42.54-8.5,109.85,109.85,0,0,1-51-48.22C-2.13,100.74-4.76,61.35,25.64,31.93c.47,0-3.69,6.38-3.22,6.38L21.58,41C-.32,109.62,67.17,168.4,132.78,161.68c15.77-1.62,35.88-10.25,48.22-22.69"/><path class="cls-1" d="M141.29,110.63c16.51.11,33.75-7.6,44-18.43-8.93,22.67-34.8,37.24-69.48,32.61-29-3.89-56.71-33.11-59.56-62.39C54.13,41.1,61.56,28.38,73.79,13,69.54,21,68,27.25,67.56,31.22c-4.65,46.1,36.82,79.17,73.73,79.41"/><path class="cls-1" d="M183.59,53.37c-2.56,5.88-17.34,17-23.86,18.39-25.84,5.5-42.39-6.75-51-20.69a64.27,64.27,0,0,1-4.1-9.21c-3.36-11.43-1.82-28.72,8.21-37.67-3,8.51-3.46,18.39-1.87,24.82a55.3,55.3,0,0,0,6.83,14.93c5.35,7.77,8.74,9.66,15.6,13.78a41.43,41.43,0,0,0,7.84,3.76c6.51,1.92,20.25,7,42.4-8.11"/></svg>