<?xml version="1.0" encoding="utf-8"?>
<!-- Generator: Adobe Illustrator 25.0.0, SVG Export Plug-In . SVG Version: 6.00 Build 0)  -->
<svg version="1.1" id="Layer_1" xmlns="http://www.w3.org/2000/svg" xmlns:xlink="http://www.w3.org/1999/xlink" x="0px" y="0px"
	 viewBox="0 0 120 120" style="enable-background:new 0 0 120 120;" xml:space="preserve">
<style type="text/css">
	.st0{fill:#8BE019;}
</style>
<g>
	<g>
		<rect x="14" y="14.2" class="st0" width="92" height="92"/>
		<path d="M102,18.2v84H18v-84L102,18.2 M110,10.2H10v100h100V10.2L110,10.2z"/>
	</g>
	<rect x="51.8" y="31.7" width="16.5" height="12.5"/>
	<rect x="51.8" y="47.7" width="16.5" height="41.2"/>
	<g>
		<polygon points="72.3,99.7 65.7,103 62.5,70.1 89.5,92.1 82.3,95.5 90.4,110 79.8,114.6 		"/>
		<path class="st0" d="M64.9,74.7l20.9,17l-2.4,1.1l-3.9,1.8l2.1,3.7l6,10.7l-6.9,3L75,100.6L73.2,97l-3.6,1.8l-2.2,1.1L64.9,74.7
			 M60,65.5l4,40.6l7.4-3.7l7.4,14.9l14.4-6.3L85,96.5l8.2-3.9L60,65.5L60,65.5z"/>
	</g>
</g>
</svg>
