<?xml version="1.0" standalone="no"?>
<!DOCTYPE svg PUBLIC "-//W3C//DTD SVG 20010904//EN"
 "http://www.w3.org/TR/2001/REC-SVG-20010904/DTD/svg10.dtd">
<svg version="1.0" xmlns="http://www.w3.org/2000/svg"
 width="880.000000pt" height="880.000000pt" viewBox="0 0 880.000000 880.000000"
 preserveAspectRatio="xMidYMid meet">
<metadata>
Created by potrace 1.14, written by Peter Selinger 2001-2017
</metadata>
<g transform="translate(0.000000,880.000000) scale(0.100000,-0.100000)"
fill="#000000" stroke="none">
<path d="M0 7601 l0 -801 33 -1 c231 -4 438 -36 652 -99 39 -12 75 -23 80 -24
6 -2 21 -7 35 -13 14 -6 52 -20 85 -32 33 -13 65 -27 72 -33 7 -6 13 -8 13 -4
0 7 205 -98 280 -144 75 -46 223 -152 290 -208 73 -61 268 -257 305 -307 17
-22 36 -44 42 -48 7 -4 13 -15 13 -22 0 -8 4 -15 8 -15 12 0 163 -231 211
-324 23 -44 45 -84 49 -90 4 -6 7 -13 7 -16 0 -4 45 -113 80 -195 14 -33 48
-142 52 -165 1 -8 9 -40 18 -70 9 -30 18 -66 21 -80 2 -14 9 -47 14 -75 28
-150 35 -236 34 -440 0 -145 -8 -320 -14 -320 -2 0 -8 -34 -15 -80 -15 -107
-87 -377 -108 -402 -5 -7 -7 -13 -4 -13 3 0 -2 -19 -12 -42 -20 -48 -34 -80
-36 -88 -4 -16 -81 -168 -111 -222 -20 -34 -42 -72 -48 -83 -28 -50 -151 -222
-204 -285 -36 -44 -263 -270 -300 -300 -24 -19 -52 -42 -62 -50 -10 -8 -28
-22 -40 -30 -12 -8 -48 -34 -80 -57 -187 -135 -513 -286 -729 -339 -9 -2 -36
-8 -61 -15 -99 -24 -116 -28 -165 -34 -22 -3 -51 -8 -65 -10 -72 -12 -205 -22
-327 -25 -10 0 -13 -167 -13 -800 l0 -801 148 6 c142 4 239 11 292 20 14 2 52
7 85 10 33 4 67 8 76 11 9 3 34 7 55 9 22 2 50 7 64 10 14 3 39 8 55 11 17 2
68 14 115 25 47 11 94 23 105 25 11 3 31 7 44 10 13 3 34 10 45 16 12 6 22 10
24 9 4 -4 109 28 212 64 162 58 184 66 197 77 7 6 13 8 13 4 0 -4 11 1 25 10
14 9 25 14 25 10 0 -3 26 7 58 23 31 16 109 54 172 86 63 32 127 66 143 77 15
11 27 17 27 14 0 -6 114 64 137 84 7 5 15 10 19 10 4 0 22 11 40 25 18 14 35
25 38 25 9 0 110 74 114 82 2 5 10 8 17 8 8 0 18 6 22 13 4 8 22 22 38 33 17
10 35 23 41 29 6 5 23 19 38 30 27 20 39 30 109 93 21 18 37 30 37 27 0 -3 17
12 38 32 21 21 67 66 102 99 109 104 237 242 326 353 10 13 24 28 29 35 10 10
80 105 165 221 57 79 143 218 213 345 69 126 117 224 117 237 0 7 5 13 12 13
6 0 8 3 5 7 -4 3 -1 16 6 27 37 60 185 457 202 546 2 8 4 15 5 15 1 0 3 7 5
15 6 22 14 58 19 78 3 9 16 67 30 127 24 104 31 141 41 210 3 17 7 46 10 65 3
19 7 46 10 60 4 25 10 85 21 195 3 33 7 103 8 156 2 53 6 101 10 107 3 6 2 13
-3 16 -5 3 -5 21 -1 41 4 19 5 35 1 35 -3 0 -6 44 -7 98 -1 119 -15 324 -29
408 -3 19 -7 51 -10 72 -5 33 -13 79 -29 162 -3 14 -8 39 -11 55 -3 17 -10 51
-16 76 -6 26 -12 53 -13 60 -2 8 -6 21 -9 29 -4 13 -16 56 -31 120 -12 49
-100 307 -108 318 -6 6 -8 12 -5 12 3 0 -2 19 -13 43 -10 23 -26 60 -36 82 -9
22 -18 43 -18 47 -1 3 -4 10 -8 14 -5 4 -8 16 -8 26 0 10 -4 18 -10 18 -5 0
-10 4 -10 10 0 17 -108 229 -179 352 -40 68 -125 203 -131 208 -4 3 -13 15
-19 28 -7 13 -19 31 -26 40 -7 9 -50 67 -95 127 -45 61 -88 115 -96 121 -8 6
-14 14 -14 17 0 3 -10 17 -22 29 -13 13 -43 46 -66 73 -69 79 -200 211 -286
289 -44 39 -87 78 -96 86 -47 45 -266 210 -370 280 -58 40 -152 100 -155 100
-2 0 -33 18 -70 41 -64 39 -300 159 -375 192 -19 8 -57 25 -85 37 -56 25 -192
76 -245 92 -19 5 -41 15 -47 20 -7 6 -13 8 -13 5 0 -4 -19 1 -42 9 -50 17
-277 79 -333 89 -22 5 -44 9 -50 11 -25 7 -184 35 -220 39 -22 3 -51 7 -65 9
-22 5 -69 10 -185 21 -16 2 -101 6 -187 10 l-158 7 0 -801z"/>
<path d="M4009 8383 c5 -10 10 -22 11 -28 4 -17 20 -58 36 -89 8 -16 14 -34
14 -41 0 -7 6 -25 14 -41 8 -16 74 -177 146 -359 72 -181 138 -343 146 -359 8
-16 14 -34 14 -41 0 -7 6 -25 14 -41 8 -16 50 -119 94 -229 43 -110 83 -209
87 -220 5 -11 7 -23 7 -27 -1 -5 3 -8 8 -8 6 0 10 -7 10 -15 0 -8 11 -39 25
-70 13 -30 24 -56 24 -58 -1 -5 23 -64 37 -91 8 -16 14 -34 14 -41 0 -7 6 -25
14 -41 15 -30 336 -831 336 -838 0 -2 9 -23 19 -47 11 -24 20 -48 21 -54 1 -5
11 -27 21 -47 11 -21 17 -38 14 -38 -3 0 2 -11 11 -24 8 -14 15 -26 14 -28 -1
-2 3 -14 9 -28 6 -14 54 -135 107 -270 53 -135 102 -258 109 -275 7 -16 37
-88 65 -160 29 -71 57 -141 63 -155 6 -14 11 -28 12 -32 2 -5 4 -10 5 -13 1
-3 3 -8 5 -12 1 -5 6 -19 12 -33 45 -105 83 -206 83 -217 0 -7 4 -13 10 -13 5
0 9 -3 8 -7 0 -5 2 -17 7 -28 4 -11 44 -110 88 -220 43 -110 84 -211 90 -225
6 -14 11 -28 12 -32 2 -5 4 -10 5 -13 1 -3 3 -8 5 -12 1 -5 6 -19 12 -33 61
-145 397 -990 401 -1008 2 -12 8 -22 13 -22 5 0 8 -3 7 -7 0 -5 2 -17 7 -28 4
-11 44 -110 88 -220 43 -110 84 -211 90 -225 6 -14 11 -28 12 -32 2 -5 4 -10
5 -13 1 -3 3 -8 5 -12 1 -5 6 -19 12 -33 37 -87 65 -156 67 -165 2 -5 7 -19
11 -30 57 -133 325 -813 325 -822 0 -7 5 -13 10 -13 6 0 9 -3 8 -8 0 -4 2 -16
7 -27 22 -54 230 -576 245 -615 l18 -45 801 -3 801 -2 -21 52 c-11 29 -27 66
-35 82 -8 16 -14 34 -14 41 0 7 -6 25 -14 41 -8 16 -50 119 -94 229 -43 110
-83 209 -87 220 -5 11 -7 23 -7 28 1 4 -2 7 -8 7 -5 0 -10 6 -10 13 0 13 -108
291 -146 375 -13 29 -24 55 -24 58 0 4 -84 219 -125 319 -5 11 -7 23 -7 28 1
4 -2 7 -8 7 -5 0 -10 6 -10 13 0 12 -103 280 -140 362 -10 22 -39 94 -65 160
-26 66 -52 131 -58 145 -5 14 -11 28 -12 33 -2 4 -4 9 -5 12 -1 3 -3 8 -5 13
-1 4 -6 18 -12 32 -40 93 -163 409 -163 419 0 6 -4 11 -10 11 -5 0 -10 8 -10
18 0 10 -5 23 -12 30 -7 7 -9 12 -6 12 4 0 -4 25 -18 55 -13 31 -24 62 -24 70
0 8 -4 15 -10 15 -5 0 -9 3 -8 8 0 4 -2 16 -7 27 -75 185 -135 342 -135 352 0
7 -4 13 -10 13 -5 0 -9 3 -8 8 1 8 -17 59 -32 84 -6 10 -10 26 -10 36 0 10 -4
22 -9 28 -4 5 -77 182 -161 394 -83 212 -160 403 -170 425 -10 22 -39 94 -65
160 -26 66 -52 131 -58 145 -5 14 -11 28 -12 33 -2 4 -4 9 -5 12 -1 3 -3 8 -5
13 -1 4 -6 18 -12 32 -37 87 -65 156 -67 165 -2 6 -8 21 -14 35 -5 14 -26 66
-45 115 -20 50 -43 108 -53 130 -10 22 -19 45 -20 50 -1 6 -23 62 -49 125
-110 269 -155 384 -155 397 0 7 -5 13 -12 13 -6 0 -8 3 -5 7 4 3 3 11 -1 17
-5 6 -17 34 -26 61 -10 28 -25 65 -33 83 -8 18 -45 110 -82 205 -37 95 -71
181 -76 192 -4 11 -7 23 -7 28 1 4 -2 7 -8 7 -5 0 -10 6 -10 13 0 12 -105 284
-142 365 -22 51 -62 154 -63 164 0 3 -3 10 -7 14 -5 4 -8 16 -8 26 0 10 -4 18
-9 18 -5 0 -12 12 -15 26 -8 32 -188 487 -222 562 -13 29 -24 55 -24 58 0 3
-26 71 -58 152 -68 170 -74 186 -72 191 1 2 -2 7 -7 10 -4 3 -15 26 -24 51
l-16 45 -802 3 c-762 2 -801 1 -792 -15z"/>
</g>
</svg>
